<svg version="1.2" xmlns="http://www.w3.org/2000/svg" viewBox="0 0 448 512" width="448" height="512">
	<title>default-user-img-svg</title>
	<style>
		.s0 { fill: #ffffff } 
	</style>
	<path id="Layer" class="s0" d="m224 256c33.9 0 66.5-13.5 90.5-37.5 24-24 37.5-56.6 37.5-90.5 0-33.9-13.5-66.5-37.5-90.5-24-24-56.6-37.5-90.5-37.5-33.9 0-66.5 13.5-90.5 37.5-24 24-37.5 56.6-37.5 90.5 0 33.9 13.5 66.5 37.5 90.5 24 24 56.6 37.5 90.5 37.5zm-45.7 48c-98.5 0-178.3 79.8-178.3 178.3 0 16.4 13.3 29.7 29.7 29.7h388.6c16.4 0 29.7-13.3 29.7-29.7 0-98.5-79.8-178.3-178.3-178.3z"/>
</svg>