<svg version="1.2" xmlns="http://www.w3.org/2000/svg" viewBox="0 0 448 512" width="448" height="512"><style>.a{fill:#b1bad3}</style><path class="a" d="m438.6 150.6c12.5-12.5 12.5-32.8 0-45.3l-96-96c-12.5-12.5-32.8-12.5-45.3 0-12.5 12.5-12.5 32.8 0 45.3l41.4 41.4h-306.7c-17.7 0-32 14.3-32 32 0 17.7 14.3 32 32 32h306.7l-41.4 41.4c-12.5 12.5-12.5 32.8 0 45.3 12.5 12.5 32.8 12.5 45.3 0l96-96zm-333.3 352c12.5 12.5 32.8 12.5 45.3 0 12.5-12.5 12.5-32.8 0-45.3l-41.3-41.3h306.7c17.7 0 32-14.3 32-32 0-17.7-14.3-32-32-32h-306.7l41.4-41.4c12.5-12.5 12.5-32.8 0-45.3-12.5-12.5-32.8-12.5-45.3 0l-96 96c-12.5 12.5-12.5 32.8 0 45.3l96 96z"/></svg>