<svg version="1.2" xmlns="http://www.w3.org/2000/svg" viewBox="0 0 384 512" width="384" height="512"><style>.a{fill:#b1bad3}</style><path fill-rule="evenodd" class="a" d="m54.6 438.6c-12.5 12.5-32.8 12.5-45.3 0-12.5-12.5-12.5-32.8 0-45.3l320-320c12.5-12.5 32.8-12.5 45.3 0 12.5 12.5 12.5 32.8 0 45.3zm54.7-265.3c-12 12-28.3 18.7-45.3 18.7-17 0-33.3-6.7-45.3-18.7-12-12-18.7-28.3-18.7-45.3 0-17 6.7-33.3 18.7-45.3 12-12 28.3-18.7 45.3-18.7 17 0 33.3 6.7 45.3 18.7 12 12 18.7 28.3 18.7 45.3 0 17-6.7 33.3-18.7 45.3zm256 256c-12 12-28.3 18.7-45.3 18.7-17 0-33.3-6.7-45.3-18.7-12-12-18.7-28.3-18.7-45.3 0-17 6.7-33.3 18.7-45.3 12-12 28.3-18.7 45.3-18.7 17 0 33.3 6.7 45.3 18.7 12 12 18.7 28.3 18.7 45.3 0 17-6.7 33.3-18.7 45.3z"/></svg>